<svg id="Capa_1" enable-background="new 0 0 512 512" height="512" viewBox="0 0 512 512" width="512" xmlns="http://www.w3.org/2000/svg"><g><g><path d="m256 284.33c163.823-106.342 156.71-199.25 156.71-199.25 0-46.988-38.092-85.08-85.08-85.08-30.072 0-56.499 15.602-71.63 39.152-15.131-23.55-41.558-39.152-71.63-39.152-46.989 0-85.08 38.092-85.08 85.08 0 0-7.113 92.908 156.71 199.25z"/></g><path d="m114.528 266.6-11.927 11.927c-12.445 12.445-12.445 32.622 0 45.067l23.916 23.916-21.213 21.213-57.176-57.176.607-69.94c0-17.6-14.267-31.867-31.867-31.867h-16.868v117.6l94.892 99.892c24.89 24.89 65.244 24.89 90.134 0 24.89-24.89 24.89-65.244 0-90.134z"/><path d="m97.469 465.763v46.237h106.224v-61.111c-17.385 16.152-39.877 25.01-63.734 25.01-15.015 0-29.488-3.51-42.49-10.136z"/><path d="m495.133 209.739c-17.6 0-31.867 14.268-31.867 31.867l.606 69.94-57.176 57.176-21.213-21.213 23.916-23.916c12.445-12.445 12.445-32.622 0-45.067l-11.927-11.926-70.498 70.498c-24.89 24.89-24.89 65.244 0 90.134 24.89 24.89 65.244 24.89 90.134 0l94.892-99.892v-117.601z"/><path d="m308.307 450.889v61.111h106.224v-46.237c-13.002 6.625-27.475 10.136-42.49 10.136-23.857 0-46.35-8.858-63.734-25.01z"/></g></svg>